<svg xmlns="http://www.w3.org/2000/svg" xmlns:xlink="http://www.w3.org/1999/xlink" width="500" zoomAndPan="magnify" viewBox="0 0 375 374.999991" height="500" preserveAspectRatio="xMidYMid meet" version="1.0"><defs><g/></defs><rect x="-37.5" width="450" fill="#ffffff" y="-37.499999" height="449.999989" fill-opacity="1"/><rect x="-37.5" width="450" fill="#07363c" y="-37.499999" height="449.999989" fill-opacity="1"/><g fill="#e4c19d" fill-opacity="1"><g transform="translate(141.191645, 197.530956)"><g><path d="M 64.5 -110.8125 L 64.5 -79.609375 L 62 -79.609375 C 61.226562 -85.585938 59.804688 -90.347656 57.734375 -93.890625 C 55.660156 -97.429688 52.726562 -100.25 48.9375 -102.34375 C 45.144531 -104.445312 41.203125 -105.5 37.109375 -105.5 C 32.515625 -105.5 28.707031 -104.085938 25.6875 -101.265625 C 22.675781 -98.441406 21.171875 -95.234375 21.171875 -91.640625 C 21.171875 -88.929688 22.140625 -86.441406 24.078125 -84.171875 C 26.785156 -80.847656 33.3125 -76.421875 43.65625 -70.890625 C 52.070312 -66.347656 57.816406 -62.875 60.890625 -60.46875 C 63.960938 -58.0625 66.328125 -55.222656 67.984375 -51.953125 C 69.640625 -48.691406 70.46875 -45.265625 70.46875 -41.671875 C 70.46875 -34.859375 67.828125 -28.976562 62.546875 -24.03125 C 57.265625 -19.082031 50.441406 -16.609375 42.078125 -16.609375 C 39.484375 -16.609375 37.023438 -16.800781 34.703125 -17.1875 C 33.367188 -17.40625 30.539062 -18.21875 26.21875 -19.625 C 21.90625 -21.039062 19.171875 -21.75 18.015625 -21.75 C 16.910156 -21.75 16.035156 -21.414062 15.390625 -20.75 C 14.753906 -20.082031 14.273438 -18.703125 13.953125 -16.609375 L 11.453125 -16.609375 L 11.453125 -47.484375 L 13.953125 -47.484375 C 15.109375 -41.003906 16.65625 -36.160156 18.59375 -32.953125 C 20.53125 -29.742188 23.503906 -27.085938 27.515625 -24.984375 C 31.523438 -22.878906 35.910156 -21.828125 40.671875 -21.828125 C 46.203125 -21.828125 50.570312 -23.28125 53.78125 -26.1875 C 57 -29.09375 58.609375 -32.539062 58.609375 -36.53125 C 58.609375 -38.738281 58 -40.976562 56.78125 -43.25 C 55.5625 -45.519531 53.679688 -47.625 51.140625 -49.5625 C 49.421875 -50.882812 44.703125 -53.703125 36.984375 -58.015625 C 29.265625 -62.335938 23.785156 -65.785156 20.546875 -68.359375 C 17.304688 -70.929688 14.84375 -73.765625 13.15625 -76.859375 C 11.46875 -79.960938 10.625 -83.367188 10.625 -87.078125 C 10.625 -93.546875 13.097656 -99.117188 18.046875 -103.796875 C 23.003906 -108.472656 29.328125 -110.8125 37.015625 -110.8125 C 41.773438 -110.8125 46.84375 -109.625 52.21875 -107.25 C 54.707031 -106.144531 56.445312 -105.59375 57.4375 -105.59375 C 58.601562 -105.59375 59.546875 -105.9375 60.265625 -106.625 C 60.984375 -107.3125 61.5625 -108.707031 62 -110.8125 Z M 64.5 -110.8125 "/></g></g></g><path stroke-linecap="butt" transform="matrix(2.723839, 0, 0, 2.723839, 166.392987, 82.286457)" fill="none" stroke-linejoin="miter" d="M 1.067535 48.137868 L 1.067535 47.227217 L 2.318068 47.227217 C 3.714879 47.227217 4.700104 46.779778 5.273743 45.886336 C 5.638004 45.357154 5.820134 44.158248 5.820134 42.292488 L 5.820134 20.927305 C 5.820134 18.87798 5.599283 17.588727 5.156147 17.059545 C 4.505067 16.348232 3.558562 15.992576 2.318068 15.992576 L 1.067535 15.992576 L 1.067535 15.08049 L 14.530841 15.08049 C 19.469873 15.08049 23.222905 15.645525 25.792808 16.772725 C 28.361276 17.90136 30.432113 19.772857 32.003884 22.384348 C 33.582825 24.988669 34.373012 28.008878 34.373012 31.446409 C 34.373012 36.038389 32.970465 39.8746 30.166805 42.956475 C 27.041907 46.411215 22.269231 48.137868 15.845909 48.137868 Z M 10.506764 45.76874 C 12.564694 46.211876 14.291347 46.432727 15.689592 46.432727 C 19.474175 46.432727 22.603375 45.109055 25.077193 42.461711 C 27.559616 39.805763 28.80011 36.211915 28.80011 31.681601 C 28.80011 27.115435 27.559616 23.517285 25.077193 20.88715 C 22.603375 18.257016 19.412509 16.941949 15.507462 16.941949 C 14.048985 16.941949 12.382563 17.172838 10.506764 17.633184 Z M 10.506764 45.76874 " stroke="#07363c" stroke-width="2.599998" stroke-opacity="1" stroke-miterlimit="4"/><g fill="#e4c19d" fill-opacity="1"><g transform="translate(166.392987, 232.09759)"><g><path d="M 2.90625 -18.671875 L 2.90625 -21.171875 L 6.3125 -21.171875 C 10.125 -21.171875 12.804688 -22.382812 14.359375 -24.8125 C 15.359375 -26.257812 15.859375 -29.523438 15.859375 -34.609375 L 15.859375 -92.796875 C 15.859375 -98.390625 15.25 -101.90625 14.03125 -103.34375 C 12.257812 -105.28125 9.6875 -106.25 6.3125 -106.25 L 2.90625 -106.25 L 2.90625 -108.734375 L 39.59375 -108.734375 C 53.039062 -108.734375 63.265625 -107.195312 70.265625 -104.125 C 77.265625 -101.0625 82.910156 -95.972656 87.203125 -88.859375 C 91.492188 -81.742188 93.640625 -73.515625 93.640625 -64.171875 C 93.640625 -51.660156 89.816406 -41.195312 82.171875 -32.78125 C 73.648438 -23.375 60.648438 -18.671875 43.171875 -18.671875 Z M 28.640625 -25.15625 C 34.222656 -23.9375 38.925781 -23.328125 42.75 -23.328125 C 53.039062 -23.328125 61.5625 -26.9375 68.3125 -34.15625 C 75.0625 -41.375 78.4375 -51.15625 78.4375 -63.5 C 78.4375 -75.945312 75.0625 -85.753906 68.3125 -92.921875 C 61.5625 -100.085938 52.875 -103.671875 42.25 -103.671875 C 38.269531 -103.671875 33.734375 -103.035156 28.640625 -101.765625 Z M 28.640625 -25.15625 "/></g></g></g><g fill="#e4c19d" fill-opacity="1"><g transform="translate(101.746061, 252.094741)"><g><path d="M 2.265625 -5.9375 C 2.265625 -7.226562 2.601562 -8.328125 3.28125 -9.234375 C 3.957031 -10.140625 4.882812 -10.832031 6.0625 -11.3125 C 6.21875 -11.375 6.320312 -11.328125 6.375 -11.171875 C 6.4375 -11.023438 6.425781 -10.894531 6.34375 -10.78125 C 5.800781 -10.476562 5.367188 -10.007812 5.046875 -9.375 C 4.734375 -8.738281 4.578125 -7.96875 4.578125 -7.0625 C 4.578125 -5.21875 5.253906 -3.765625 6.609375 -2.703125 C 7.972656 -1.648438 9.738281 -1.125 11.90625 -1.125 C 14.75 -1.125 16.78125 -1.679688 18 -2.796875 C 19.21875 -3.921875 19.828125 -5.390625 19.828125 -7.203125 C 19.828125 -8.890625 19.476562 -10.375 18.78125 -11.65625 C 18.09375 -12.9375 17.332031 -14.144531 16.5 -15.28125 C 15.675781 -16.414062 14.914062 -17.554688 14.21875 -18.703125 C 13.519531 -19.847656 13.171875 -21.144531 13.171875 -22.59375 C 13.171875 -23.4375 13.359375 -24.25 13.734375 -25.03125 C 14.117188 -25.820312 14.648438 -26.523438 15.328125 -27.140625 C 16.003906 -27.765625 16.8125 -28.253906 17.75 -28.609375 C 18.6875 -28.972656 19.710938 -29.15625 20.828125 -29.15625 C 22.367188 -29.15625 23.582031 -28.832031 24.46875 -28.1875 C 25.363281 -27.539062 25.8125 -26.765625 25.8125 -25.859375 C 25.8125 -25.335938 25.59375 -24.707031 25.15625 -23.96875 C 24.71875 -23.226562 24.269531 -22.585938 23.8125 -22.046875 C 23.695312 -21.992188 23.59375 -22.007812 23.5 -22.09375 C 23.40625 -22.1875 23.375 -22.296875 23.40625 -22.421875 C 23.5625 -22.660156 23.691406 -22.953125 23.796875 -23.296875 C 23.898438 -23.640625 23.953125 -24.023438 23.953125 -24.453125 C 23.953125 -24.929688 23.84375 -25.390625 23.625 -25.828125 C 23.414062 -26.265625 23.113281 -26.640625 22.71875 -26.953125 C 22.332031 -27.273438 21.882812 -27.535156 21.375 -27.734375 C 20.863281 -27.929688 20.320312 -28.03125 19.75 -28.03125 C 18.238281 -28.03125 17.132812 -27.664062 16.4375 -26.9375 C 15.738281 -26.21875 15.390625 -25.285156 15.390625 -24.140625 C 15.390625 -23.234375 15.5625 -22.378906 15.90625 -21.578125 C 16.257812 -20.773438 16.691406 -19.972656 17.203125 -19.171875 C 17.722656 -18.378906 18.273438 -17.582031 18.859375 -16.78125 C 19.453125 -15.976562 20.003906 -15.144531 20.515625 -14.28125 C 21.023438 -13.425781 21.453125 -12.519531 21.796875 -11.5625 C 22.148438 -10.613281 22.328125 -9.582031 22.328125 -8.46875 C 22.328125 -7.289062 22.03125 -6.1875 21.4375 -5.15625 C 20.851562 -4.132812 20.046875 -3.238281 19.015625 -2.46875 C 17.992188 -1.695312 16.800781 -1.09375 15.4375 -0.65625 C 14.082031 -0.21875 12.617188 0 11.046875 0 C 8.179688 0 6 -0.554688 4.5 -1.671875 C 3.007812 -2.785156 2.265625 -4.207031 2.265625 -5.9375 Z M 2.265625 -5.9375 "/></g></g></g><g fill="#e4c19d" fill-opacity="1"><g transform="translate(124.973798, 252.094741)"><g><path d="M 8.109375 -11.59375 C 9.160156 -11.59375 9.941406 -11.273438 10.453125 -10.640625 C 10.972656 -10.003906 11.234375 -9.265625 11.234375 -8.421875 C 11.234375 -7.242188 11 -6.148438 10.53125 -5.140625 C 10.0625 -4.128906 9.484375 -3.238281 8.796875 -2.46875 C 8.117188 -1.695312 7.390625 -1.09375 6.609375 -0.65625 C 5.828125 -0.21875 5.117188 0 4.484375 0 C 3.453125 0 2.671875 -0.304688 2.140625 -0.921875 C 1.617188 -1.546875 1.359375 -2.34375 1.359375 -3.3125 C 1.359375 -4.1875 1.546875 -5.101562 1.921875 -6.0625 C 2.296875 -7.03125 2.789062 -7.921875 3.40625 -8.734375 C 4.03125 -9.554688 4.75 -10.238281 5.5625 -10.78125 C 6.382812 -11.320312 7.234375 -11.59375 8.109375 -11.59375 Z M 5.609375 -1.40625 C 6.546875 -1.40625 7.335938 -1.894531 7.984375 -2.875 C 8.640625 -3.851562 8.96875 -5.203125 8.96875 -6.921875 C 8.96875 -7.828125 8.785156 -8.582031 8.421875 -9.1875 C 8.054688 -9.789062 7.53125 -10.09375 6.84375 -10.09375 C 5.875 -10.09375 5.085938 -9.625 4.484375 -8.6875 C 3.878906 -7.757812 3.578125 -6.390625 3.578125 -4.578125 C 3.578125 -3.515625 3.765625 -2.71875 4.140625 -2.1875 C 4.515625 -1.664062 5.003906 -1.40625 5.609375 -1.40625 Z M 5.609375 -1.40625 "/></g></g></g><g fill="#e4c19d" fill-opacity="1"><g transform="translate(136.655577, 252.094741)"><g><path d="M 1.09375 -0.40625 C 2.445312 -5.601562 4.003906 -10.28125 5.765625 -14.4375 C 7.535156 -18.601562 9.398438 -22.148438 11.359375 -25.078125 C 13.328125 -28.015625 15.3125 -30.273438 17.3125 -31.859375 C 19.320312 -33.441406 21.234375 -34.234375 23.046875 -34.234375 C 23.804688 -34.234375 24.40625 -34.054688 24.84375 -33.703125 C 25.28125 -33.359375 25.578125 -32.9375 25.734375 -32.4375 C 25.898438 -31.945312 25.921875 -31.410156 25.796875 -30.828125 C 25.679688 -30.253906 25.457031 -29.742188 25.125 -29.296875 C 25.039062 -29.203125 24.953125 -29.171875 24.859375 -29.203125 C 24.765625 -29.234375 24.71875 -29.3125 24.71875 -29.4375 C 24.875 -30.039062 24.707031 -30.613281 24.21875 -31.15625 C 23.738281 -31.695312 22.972656 -31.96875 21.921875 -31.96875 C 20.285156 -31.96875 18.734375 -31.53125 17.265625 -30.65625 C 15.804688 -29.78125 14.378906 -28.320312 12.984375 -26.28125 C 11.597656 -24.25 10.238281 -21.546875 8.90625 -18.171875 C 7.582031 -14.804688 6.226562 -10.617188 4.84375 -5.609375 C 5.300781 -6.429688 5.820312 -7.203125 6.40625 -7.921875 C 7 -8.648438 7.640625 -9.285156 8.328125 -9.828125 C 9.023438 -10.367188 9.765625 -10.796875 10.546875 -11.109375 C 11.335938 -11.429688 12.15625 -11.59375 13 -11.59375 C 13.363281 -11.59375 13.625 -11.5 13.78125 -11.3125 C 13.945312 -11.132812 14.03125 -10.925781 14.03125 -10.6875 C 14.03125 -10.289062 13.894531 -9.851562 13.625 -9.375 C 12.988281 -8.257812 12.472656 -7.113281 12.078125 -5.9375 C 11.691406 -4.757812 11.5 -3.6875 11.5 -2.71875 C 11.5 -2.289062 11.539062 -1.941406 11.625 -1.671875 C 11.71875 -1.398438 11.890625 -1.265625 12.140625 -1.265625 C 12.441406 -1.265625 12.769531 -1.421875 13.125 -1.734375 C 13.488281 -2.054688 13.789062 -2.414062 14.03125 -2.8125 C 14.125 -2.863281 14.210938 -2.851562 14.296875 -2.78125 C 14.390625 -2.707031 14.425781 -2.625 14.40625 -2.53125 C 14.007812 -1.875 13.457031 -1.285156 12.75 -0.765625 C 12.039062 -0.253906 11.398438 0 10.828125 0 C 10.304688 0 9.878906 -0.140625 9.546875 -0.421875 C 9.222656 -0.710938 9.0625 -1.207031 9.0625 -1.90625 C 9.0625 -2.445312 9.113281 -3.023438 9.21875 -3.640625 C 9.320312 -4.265625 9.457031 -4.878906 9.625 -5.484375 C 9.789062 -6.085938 9.984375 -6.679688 10.203125 -7.265625 C 10.429688 -7.859375 10.679688 -8.394531 10.953125 -8.875 C 11.109375 -9.238281 11.1875 -9.492188 11.1875 -9.640625 C 11.1875 -9.910156 11.035156 -10.046875 10.734375 -10.046875 C 10.160156 -10.046875 9.539062 -9.828125 8.875 -9.390625 C 8.207031 -8.953125 7.554688 -8.332031 6.921875 -7.53125 C 6.296875 -6.738281 5.6875 -5.78125 5.09375 -4.65625 C 4.507812 -3.539062 4.003906 -2.304688 3.578125 -0.953125 C 3.515625 -0.742188 3.269531 -0.53125 2.84375 -0.3125 C 2.425781 -0.101562 1.960938 0 1.453125 0 C 1.148438 0 1.03125 -0.132812 1.09375 -0.40625 Z M 1.09375 -0.40625 "/></g></g></g><g fill="#e4c19d" fill-opacity="1"><g transform="translate(151.325717, 252.094741)"><g><path d="M 13.765625 -2.859375 C 13.828125 -2.910156 13.898438 -2.90625 13.984375 -2.84375 C 14.078125 -2.789062 14.109375 -2.703125 14.078125 -2.578125 C 13.535156 -1.796875 12.929688 -1.171875 12.265625 -0.703125 C 11.609375 -0.234375 10.976562 0 10.375 0 C 9.675781 0 9.226562 -0.488281 9.03125 -1.46875 C 8.832031 -2.445312 8.929688 -3.617188 9.328125 -4.984375 C 8.515625 -3.679688 7.628906 -2.566406 6.671875 -1.640625 C 5.722656 -0.722656 4.722656 -0.175781 3.671875 0 C 2.941406 0 2.378906 -0.332031 1.984375 -1 C 1.597656 -1.664062 1.40625 -2.4375 1.40625 -3.3125 C 1.40625 -4.300781 1.644531 -5.285156 2.125 -6.265625 C 2.613281 -7.253906 3.253906 -8.140625 4.046875 -8.921875 C 4.847656 -9.703125 5.738281 -10.34375 6.71875 -10.84375 C 7.707031 -11.34375 8.695312 -11.59375 9.6875 -11.59375 C 10.75 -11.59375 11.582031 -11.335938 12.1875 -10.828125 C 12.488281 -11.035156 12.867188 -11.210938 13.328125 -11.359375 C 13.796875 -11.515625 14.210938 -11.59375 14.578125 -11.59375 C 14.703125 -11.59375 14.765625 -11.515625 14.765625 -11.359375 C 14.066406 -10.515625 13.46875 -9.585938 12.96875 -8.578125 C 12.46875 -7.566406 12.082031 -6.597656 11.8125 -5.671875 C 11.539062 -4.753906 11.375 -3.929688 11.3125 -3.203125 C 11.257812 -2.484375 11.320312 -1.988281 11.5 -1.71875 C 11.65625 -1.539062 11.910156 -1.488281 12.265625 -1.5625 C 12.628906 -1.632812 13.128906 -2.066406 13.765625 -2.859375 Z M 5.078125 -1.671875 C 5.429688 -1.671875 5.875 -1.894531 6.40625 -2.34375 C 6.9375 -2.800781 7.488281 -3.40625 8.0625 -4.15625 C 8.632812 -4.914062 9.195312 -5.765625 9.75 -6.703125 C 10.3125 -7.640625 10.804688 -8.585938 11.234375 -9.546875 C 11.109375 -9.941406 10.828125 -10.257812 10.390625 -10.5 C 9.953125 -10.75 9.445312 -10.875 8.875 -10.875 C 8.175781 -10.875 7.523438 -10.695312 6.921875 -10.34375 C 6.316406 -10 5.796875 -9.515625 5.359375 -8.890625 C 4.921875 -8.273438 4.570312 -7.535156 4.3125 -6.671875 C 4.0625 -5.816406 3.9375 -4.875 3.9375 -3.84375 C 3.9375 -3.1875 4.050781 -2.660156 4.28125 -2.265625 C 4.507812 -1.867188 4.773438 -1.671875 5.078125 -1.671875 Z M 5.078125 -1.671875 "/></g></g></g><g fill="#e4c19d" fill-opacity="1"><g transform="translate(166.131696, 252.094741)"><g><path d="M 17.5625 -9.515625 C 17.5625 -10.140625 17.335938 -10.453125 16.890625 -10.453125 C 15.984375 -10.453125 14.910156 -9.613281 13.671875 -7.9375 C 12.429688 -6.269531 11.285156 -3.878906 10.234375 -0.765625 C 10.171875 -0.585938 9.921875 -0.414062 9.484375 -0.25 C 9.046875 -0.0820312 8.628906 0 8.234375 0 C 7.878906 0 7.742188 -0.132812 7.828125 -0.40625 C 8.015625 -0.945312 8.265625 -1.625 8.578125 -2.4375 C 8.898438 -3.257812 9.203125 -4.097656 9.484375 -4.953125 C 9.773438 -5.816406 10.023438 -6.632812 10.234375 -7.40625 C 10.441406 -8.175781 10.546875 -8.769531 10.546875 -9.1875 C 10.546875 -10.007812 10.289062 -10.421875 9.78125 -10.421875 C 9 -10.421875 8.007812 -9.609375 6.8125 -7.984375 C 5.625 -6.367188 4.46875 -3.960938 3.34375 -0.765625 C 3.289062 -0.585938 3.050781 -0.414062 2.625 -0.25 C 2.207031 -0.0820312 1.832031 0 1.5 0 C 1.34375 0 1.21875 -0.03125 1.125 -0.09375 C 1.039062 -0.15625 1.03125 -0.257812 1.09375 -0.40625 C 1.332031 -1.070312 1.585938 -1.800781 1.859375 -2.59375 C 2.128906 -3.394531 2.398438 -4.203125 2.671875 -5.015625 C 2.941406 -5.835938 3.191406 -6.640625 3.421875 -7.421875 C 3.648438 -8.210938 3.851562 -8.953125 4.03125 -9.640625 C 4.125 -10.179688 4.035156 -10.453125 3.765625 -10.453125 C 3.515625 -10.453125 3.222656 -10.285156 2.890625 -9.953125 C 2.566406 -9.628906 2.238281 -9.238281 1.90625 -8.78125 C 1.8125 -8.71875 1.71875 -8.722656 1.625 -8.796875 C 1.539062 -8.878906 1.523438 -8.96875 1.578125 -9.0625 C 2.035156 -9.75 2.582031 -10.34375 3.21875 -10.84375 C 3.851562 -11.34375 4.53125 -11.59375 5.25 -11.59375 C 5.738281 -11.59375 6.0625 -11.441406 6.21875 -11.140625 C 6.382812 -10.835938 6.425781 -10.472656 6.34375 -10.046875 C 6.21875 -9.390625 6.09375 -8.832031 5.96875 -8.375 C 5.851562 -7.925781 5.691406 -7.414062 5.484375 -6.84375 C 6.265625 -8.226562 7.128906 -9.363281 8.078125 -10.25 C 9.035156 -11.144531 10.054688 -11.59375 11.140625 -11.59375 C 11.679688 -11.59375 12.09375 -11.441406 12.375 -11.140625 C 12.664062 -10.835938 12.8125 -10.472656 12.8125 -10.046875 C 12.8125 -8.867188 12.601562 -7.675781 12.1875 -6.46875 C 13.144531 -8.132812 14.082031 -9.40625 15 -10.28125 C 15.925781 -11.15625 17.039062 -11.59375 18.34375 -11.59375 C 18.945312 -11.59375 19.375 -11.429688 19.625 -11.109375 C 19.882812 -10.796875 20.015625 -10.472656 20.015625 -10.140625 C 20.015625 -9.628906 19.898438 -9.0625 19.671875 -8.4375 C 19.441406 -7.820312 19.179688 -7.175781 18.890625 -6.5 C 18.609375 -5.820312 18.351562 -5.140625 18.125 -4.453125 C 17.90625 -3.773438 17.796875 -3.117188 17.796875 -2.484375 C 17.796875 -1.734375 18.035156 -1.359375 18.515625 -1.359375 C 19.003906 -1.359375 19.65625 -1.859375 20.46875 -2.859375 C 20.5625 -2.910156 20.644531 -2.890625 20.71875 -2.796875 C 20.789062 -2.710938 20.796875 -2.609375 20.734375 -2.484375 C 20.128906 -1.734375 19.507812 -1.128906 18.875 -0.671875 C 18.25 -0.222656 17.632812 0 17.03125 0 C 16.03125 0 15.53125 -0.570312 15.53125 -1.71875 C 15.53125 -2.445312 15.632812 -3.179688 15.84375 -3.921875 C 16.0625 -4.660156 16.296875 -5.367188 16.546875 -6.046875 C 16.804688 -6.722656 17.039062 -7.363281 17.25 -7.96875 C 17.457031 -8.570312 17.5625 -9.085938 17.5625 -9.515625 Z M 17.5625 -9.515625 "/></g></g></g><g fill="#e4c19d" fill-opacity="1"><g transform="translate(187.050235, 252.094741)"><g/></g></g><g fill="#e4c19d" fill-opacity="1"><g transform="translate(193.841974, 252.094741)"><g><path d="M 26.578125 -26.890625 C 28.054688 -26.078125 29.421875 -25.101562 30.671875 -23.96875 C 31.929688 -22.84375 33.015625 -21.597656 33.921875 -20.234375 C 34.828125 -18.878906 35.523438 -17.460938 36.015625 -15.984375 C 36.515625 -14.503906 36.765625 -13.023438 36.765625 -11.546875 C 36.765625 -9.890625 36.445312 -8.347656 35.8125 -6.921875 C 35.175781 -5.503906 34.285156 -4.28125 33.140625 -3.25 C 31.992188 -2.226562 30.613281 -1.429688 29 -0.859375 C 27.382812 -0.285156 25.597656 0 23.640625 0 C 22.492188 0 21.421875 -0.0664062 20.421875 -0.203125 C 19.421875 -0.335938 18.472656 -0.519531 17.578125 -0.75 C 16.691406 -0.976562 15.832031 -1.234375 15 -1.515625 C 14.175781 -1.804688 13.359375 -2.085938 12.546875 -2.359375 C 11.398438 -1.535156 10.125 -0.9375 8.71875 -0.5625 C 7.3125 -0.1875 5.75 0 4.03125 0 C 3.0625 0 2.375 -0.109375 1.96875 -0.328125 C 1.5625 -0.554688 1.359375 -0.867188 1.359375 -1.265625 C 1.359375 -1.660156 1.5 -2.09375 1.78125 -2.5625 C 2.070312 -3.03125 2.476562 -3.457031 3 -3.84375 C 3.53125 -4.238281 4.148438 -4.5625 4.859375 -4.8125 C 5.578125 -5.070312 6.375 -5.203125 7.25 -5.203125 C 8.425781 -5.203125 9.503906 -5.097656 10.484375 -4.890625 C 11.460938 -4.679688 12.4375 -4.410156 13.40625 -4.078125 C 14.457031 -5.285156 15.453125 -6.914062 16.390625 -8.96875 C 17.328125 -11.019531 18.304688 -13.644531 19.328125 -16.84375 C 19.929688 -18.71875 20.585938 -20.378906 21.296875 -21.828125 C 22.015625 -23.273438 22.835938 -24.523438 23.765625 -25.578125 C 22.566406 -26.179688 21.296875 -26.640625 19.953125 -26.953125 C 18.609375 -27.273438 17.210938 -27.4375 15.765625 -27.4375 C 14.429688 -27.4375 13.273438 -27.238281 12.296875 -26.84375 C 11.316406 -26.457031 10.492188 -25.929688 9.828125 -25.265625 C 9.160156 -24.597656 8.628906 -23.828125 8.234375 -22.953125 C 7.847656 -22.078125 7.578125 -21.160156 7.421875 -20.203125 C 7.359375 -20.140625 7.28125 -20.125 7.1875 -20.15625 C 7.101562 -20.1875 7.0625 -20.257812 7.0625 -20.375 C 7.1875 -21.613281 7.519531 -22.769531 8.0625 -23.84375 C 8.601562 -24.914062 9.332031 -25.84375 10.25 -26.625 C 11.175781 -27.40625 12.269531 -28.019531 13.53125 -28.46875 C 14.800781 -28.925781 16.238281 -29.15625 17.84375 -29.15625 C 19.226562 -29.15625 20.566406 -28.992188 21.859375 -28.671875 C 23.160156 -28.359375 24.414062 -27.914062 25.625 -27.34375 C 26.414062 -27.976562 27.269531 -28.503906 28.1875 -28.921875 C 29.101562 -29.347656 30.140625 -29.6875 31.296875 -29.9375 C 31.378906 -29.9375 31.421875 -29.878906 31.421875 -29.765625 C 31.421875 -29.660156 31.378906 -29.578125 31.296875 -29.515625 C 29.515625 -29.035156 27.941406 -28.160156 26.578125 -26.890625 Z M 5.5625 -0.8125 C 6.832031 -0.8125 7.972656 -0.9375 8.984375 -1.1875 C 9.992188 -1.445312 10.9375 -1.910156 11.8125 -2.578125 C 10.820312 -2.878906 9.796875 -3.132812 8.734375 -3.34375 C 7.679688 -3.5625 6.519531 -3.671875 5.25 -3.671875 C 4.5625 -3.671875 4.054688 -3.546875 3.734375 -3.296875 C 3.421875 -3.054688 3.265625 -2.726562 3.265625 -2.3125 C 3.265625 -1.851562 3.453125 -1.488281 3.828125 -1.21875 C 4.203125 -0.945312 4.78125 -0.8125 5.5625 -0.8125 Z M 25.859375 -1.5 C 28.753906 -1.5 30.878906 -2.257812 32.234375 -3.78125 C 33.597656 -5.300781 34.28125 -7.421875 34.28125 -10.140625 C 34.28125 -11.554688 34.050781 -12.972656 33.59375 -14.390625 C 33.144531 -15.816406 32.507812 -17.175781 31.6875 -18.46875 C 30.875 -19.769531 29.894531 -20.976562 28.75 -22.09375 C 27.601562 -23.207031 26.320312 -24.175781 24.90625 -25 C 23.539062 -23.15625 22.378906 -20.753906 21.421875 -17.796875 C 20.359375 -14.441406 19.257812 -11.625 18.125 -9.34375 C 17 -7.070312 15.710938 -5.210938 14.265625 -3.765625 C 15.015625 -3.484375 15.789062 -3.210938 16.59375 -2.953125 C 17.394531 -2.703125 18.265625 -2.460938 19.203125 -2.234375 C 20.140625 -2.015625 21.148438 -1.835938 22.234375 -1.703125 C 23.316406 -1.566406 24.523438 -1.5 25.859375 -1.5 Z M 25.859375 -1.5 "/></g></g></g><g fill="#e4c19d" fill-opacity="1"><g transform="translate(230.834279, 252.094741)"><g><path d="M 10.734375 -9.328125 C 10.734375 -7.609375 8.453125 -6.429688 3.890625 -5.796875 C 3.859375 -5.492188 3.832031 -5.191406 3.8125 -4.890625 C 3.800781 -4.585938 3.796875 -4.269531 3.796875 -3.9375 C 3.796875 -3.15625 3.976562 -2.550781 4.34375 -2.125 C 4.707031 -1.707031 5.28125 -1.5 6.0625 -1.5 C 6.632812 -1.5 7.222656 -1.660156 7.828125 -1.984375 C 8.429688 -2.316406 8.914062 -2.742188 9.28125 -3.265625 C 9.40625 -3.316406 9.492188 -3.289062 9.546875 -3.1875 C 9.609375 -3.082031 9.625 -2.972656 9.59375 -2.859375 C 8.988281 -2.066406 8.226562 -1.390625 7.3125 -0.828125 C 6.394531 -0.273438 5.40625 0 4.34375 0 C 3.289062 0 2.53125 -0.257812 2.0625 -0.78125 C 1.59375 -1.3125 1.359375 -2.0625 1.359375 -3.03125 C 1.359375 -3.96875 1.550781 -4.941406 1.9375 -5.953125 C 2.332031 -6.960938 2.835938 -7.890625 3.453125 -8.734375 C 4.078125 -9.578125 4.789062 -10.265625 5.59375 -10.796875 C 6.394531 -11.328125 7.203125 -11.59375 8.015625 -11.59375 C 8.828125 -11.59375 9.484375 -11.359375 9.984375 -10.890625 C 10.484375 -10.421875 10.734375 -9.898438 10.734375 -9.328125 Z M 6.796875 -10.421875 C 6.097656 -10.421875 5.5 -10.09375 5 -9.4375 C 4.5 -8.789062 4.160156 -7.789062 3.984375 -6.4375 C 5.429688 -6.582031 6.5 -6.859375 7.1875 -7.265625 C 7.882812 -7.671875 8.234375 -8.175781 8.234375 -8.78125 C 8.234375 -9.238281 8.097656 -9.625 7.828125 -9.9375 C 7.554688 -10.257812 7.210938 -10.421875 6.796875 -10.421875 Z M 6.796875 -10.421875 "/></g></g></g><g fill="#e4c19d" fill-opacity="1"><g transform="translate(241.565219, 252.094741)"><g><path d="M 7.015625 -11.59375 C 7.679688 -11.59375 8.21875 -11.5 8.625 -11.3125 C 9.03125 -11.132812 9.234375 -10.910156 9.234375 -10.640625 C 9.234375 -10.304688 9.148438 -9.925781 8.984375 -9.5 C 8.816406 -9.082031 8.660156 -8.738281 8.515625 -8.46875 C 8.453125 -8.40625 8.375 -8.394531 8.28125 -8.4375 C 8.195312 -8.488281 8.15625 -8.570312 8.15625 -8.6875 C 8.238281 -8.90625 8.28125 -9.207031 8.28125 -9.59375 C 8.28125 -10.019531 8.164062 -10.367188 7.9375 -10.640625 C 7.71875 -10.910156 7.410156 -11.046875 7.015625 -11.046875 C 6.503906 -11.046875 6.085938 -10.882812 5.765625 -10.5625 C 5.453125 -10.25 5.296875 -9.804688 5.296875 -9.234375 C 5.296875 -8.753906 5.421875 -8.296875 5.671875 -7.859375 C 5.929688 -7.421875 6.21875 -6.984375 6.53125 -6.546875 C 6.851562 -6.109375 7.148438 -5.640625 7.421875 -5.140625 C 7.691406 -4.640625 7.828125 -4.070312 7.828125 -3.4375 C 7.828125 -2.351562 7.390625 -1.507812 6.515625 -0.90625 C 5.640625 -0.300781 4.492188 0 3.078125 0 C 2.054688 0 1.25 -0.164062 0.65625 -0.5 C 0.0703125 -0.832031 -0.21875 -1.191406 -0.21875 -1.578125 C -0.21875 -1.703125 -0.171875 -1.867188 -0.078125 -2.078125 C 0.00390625 -2.296875 0.117188 -2.523438 0.265625 -2.765625 C 0.421875 -3.003906 0.585938 -3.242188 0.765625 -3.484375 C 0.953125 -3.722656 1.148438 -3.921875 1.359375 -4.078125 C 1.453125 -4.140625 1.535156 -4.125 1.609375 -4.03125 C 1.679688 -3.9375 1.6875 -3.847656 1.625 -3.765625 C 1.445312 -3.578125 1.3125 -3.382812 1.21875 -3.1875 C 1.132812 -2.988281 1.09375 -2.726562 1.09375 -2.40625 C 1.09375 -1.851562 1.269531 -1.40625 1.625 -1.0625 C 1.988281 -0.71875 2.457031 -0.546875 3.03125 -0.546875 C 3.820312 -0.546875 4.4375 -0.765625 4.875 -1.203125 C 5.3125 -1.640625 5.53125 -2.175781 5.53125 -2.8125 C 5.53125 -3.382812 5.398438 -3.914062 5.140625 -4.40625 C 4.878906 -4.90625 4.597656 -5.390625 4.296875 -5.859375 C 3.992188 -6.328125 3.710938 -6.800781 3.453125 -7.28125 C 3.203125 -7.769531 3.078125 -8.285156 3.078125 -8.828125 C 3.078125 -9.609375 3.410156 -10.265625 4.078125 -10.796875 C 4.742188 -11.328125 5.722656 -11.59375 7.015625 -11.59375 Z M 7.015625 -11.59375 "/></g></g></g><g fill="#e4c19d" fill-opacity="1"><g transform="translate(250.892531, 252.094741)"><g><path d="M 13.765625 -2.859375 C 13.828125 -2.910156 13.898438 -2.90625 13.984375 -2.84375 C 14.078125 -2.789062 14.109375 -2.703125 14.078125 -2.578125 C 13.535156 -1.796875 12.929688 -1.171875 12.265625 -0.703125 C 11.609375 -0.234375 10.976562 0 10.375 0 C 9.675781 0 9.226562 -0.488281 9.03125 -1.46875 C 8.832031 -2.445312 8.929688 -3.617188 9.328125 -4.984375 C 8.515625 -3.679688 7.628906 -2.566406 6.671875 -1.640625 C 5.722656 -0.722656 4.722656 -0.175781 3.671875 0 C 2.941406 0 2.378906 -0.332031 1.984375 -1 C 1.597656 -1.664062 1.40625 -2.4375 1.40625 -3.3125 C 1.40625 -4.300781 1.644531 -5.285156 2.125 -6.265625 C 2.613281 -7.253906 3.253906 -8.140625 4.046875 -8.921875 C 4.847656 -9.703125 5.738281 -10.34375 6.71875 -10.84375 C 7.707031 -11.34375 8.695312 -11.59375 9.6875 -11.59375 C 10.75 -11.59375 11.582031 -11.335938 12.1875 -10.828125 C 12.488281 -11.035156 12.867188 -11.210938 13.328125 -11.359375 C 13.796875 -11.515625 14.210938 -11.59375 14.578125 -11.59375 C 14.703125 -11.59375 14.765625 -11.515625 14.765625 -11.359375 C 14.066406 -10.515625 13.46875 -9.585938 12.96875 -8.578125 C 12.46875 -7.566406 12.082031 -6.597656 11.8125 -5.671875 C 11.539062 -4.753906 11.375 -3.929688 11.3125 -3.203125 C 11.257812 -2.484375 11.320312 -1.988281 11.5 -1.71875 C 11.65625 -1.539062 11.910156 -1.488281 12.265625 -1.5625 C 12.628906 -1.632812 13.128906 -2.066406 13.765625 -2.859375 Z M 5.078125 -1.671875 C 5.429688 -1.671875 5.875 -1.894531 6.40625 -2.34375 C 6.9375 -2.800781 7.488281 -3.40625 8.0625 -4.15625 C 8.632812 -4.914062 9.195312 -5.765625 9.75 -6.703125 C 10.3125 -7.640625 10.804688 -8.585938 11.234375 -9.546875 C 11.109375 -9.941406 10.828125 -10.257812 10.390625 -10.5 C 9.953125 -10.75 9.445312 -10.875 8.875 -10.875 C 8.175781 -10.875 7.523438 -10.695312 6.921875 -10.34375 C 6.316406 -10 5.796875 -9.515625 5.359375 -8.890625 C 4.921875 -8.273438 4.570312 -7.535156 4.3125 -6.671875 C 4.0625 -5.816406 3.9375 -4.875 3.9375 -3.84375 C 3.9375 -3.1875 4.050781 -2.660156 4.28125 -2.265625 C 4.507812 -1.867188 4.773438 -1.671875 5.078125 -1.671875 Z M 5.078125 -1.671875 "/></g></g></g><g fill="#e4c19d" fill-opacity="1"><g transform="translate(265.698511, 252.094741)"><g><path d="M 7.203125 -13.546875 C 7.109375 -13.453125 7.007812 -13.445312 6.90625 -13.53125 C 6.800781 -13.625 6.71875 -13.753906 6.65625 -13.921875 C 6.59375 -14.085938 6.5625 -14.269531 6.5625 -14.46875 C 6.5625 -14.664062 6.609375 -14.835938 6.703125 -14.984375 C 7.035156 -15.410156 7.523438 -15.945312 8.171875 -16.59375 C 8.816406 -17.238281 9.488281 -17.789062 10.1875 -18.25 C 10.25 -18.28125 10.320312 -18.253906 10.40625 -18.171875 C 10.5 -18.097656 10.53125 -18.035156 10.5 -17.984375 C 9.863281 -17.398438 9.257812 -16.707031 8.6875 -15.90625 C 8.113281 -15.113281 7.617188 -14.328125 7.203125 -13.546875 Z M 2.359375 -8.421875 C 2.265625 -8.359375 2.1875 -8.378906 2.125 -8.484375 C 2.0625 -8.597656 2.046875 -8.695312 2.078125 -8.78125 C 3.203125 -9.6875 4.757812 -10.625 6.75 -11.59375 C 6.988281 -11.59375 7.109375 -11.457031 7.109375 -11.1875 C 6.710938 -10.488281 6.328125 -9.734375 5.953125 -8.921875 C 5.578125 -8.109375 5.242188 -7.300781 4.953125 -6.5 C 4.671875 -5.695312 4.4375 -4.925781 4.25 -4.1875 C 4.070312 -3.445312 3.984375 -2.835938 3.984375 -2.359375 C 3.984375 -1.753906 4.195312 -1.453125 4.625 -1.453125 C 4.945312 -1.453125 5.265625 -1.59375 5.578125 -1.875 C 5.898438 -2.164062 6.273438 -2.535156 6.703125 -2.984375 C 6.765625 -3.046875 6.835938 -3.039062 6.921875 -2.96875 C 7.015625 -2.894531 7.03125 -2.78125 6.96875 -2.625 C 6.3125 -1.84375 5.65625 -1.207031 5 -0.71875 C 4.351562 -0.238281 3.726562 0 3.125 0 C 2.070312 0 1.546875 -0.5 1.546875 -1.5 C 1.546875 -2.039062 1.625 -2.679688 1.78125 -3.421875 C 1.945312 -4.160156 2.171875 -4.914062 2.453125 -5.6875 C 2.742188 -6.457031 3.0625 -7.210938 3.40625 -7.953125 C 3.757812 -8.691406 4.117188 -9.332031 4.484375 -9.875 C 4.148438 -9.6875 3.78125 -9.457031 3.375 -9.1875 C 2.96875 -8.914062 2.628906 -8.660156 2.359375 -8.421875 Z M 2.359375 -8.421875 "/></g></g></g></svg>